<svg width="50" height="39" viewBox="0 0 50 39" fill="none" xmlns="http://www.w3.org/2000/svg">
<path d="M48.6854 28.5834L44.9059 24.8038V11.8395L47.3734 10.9499C47.9398 10.7456 48.3176 10.2084 48.3181 9.60613C48.3185 9.00406 47.9415 8.46612 47.3753 8.26114L24.7999 0.0854081C24.4856 -0.0284694 24.1409 -0.0284694 23.8265 0.0854081L1.25123 8.26114C0.687182 8.46545 0.310768 9.00006 0.30848 9.59994C0.306384 10.1998 0.678892 10.7372 1.24132 10.9456L9.57286 14.0319V23.4524C9.57286 23.7448 9.66244 24.0302 9.82968 24.2699C9.92164 24.4018 10.7927 25.5914 13.023 26.714C15.8406 28.1323 19.5361 28.8515 24.0068 28.8515C28.4742 28.8515 32.1884 28.1339 35.0462 26.7182C37.2985 25.6026 38.1986 24.4254 38.2939 24.295C38.4723 24.0504 38.5684 23.7554 38.5684 23.4526V14.1242L42.0472 12.87V24.8038L38.2676 28.5834C37.9995 28.8514 37.8489 29.215 37.8489 29.5941C37.8489 29.9731 37.9994 30.3368 38.2676 30.6048L42.0472 34.3842V37.5554C42.0472 38.3448 42.6872 38.9848 43.4766 38.9848C44.266 38.9848 44.906 38.3448 44.906 37.5554V34.3842L48.6855 30.6048C49.2438 30.0467 49.2437 29.1415 48.6854 28.5834ZM24.3133 2.94969L42.6824 9.60213L24.0136 16.3327L5.89381 9.62033L24.3133 2.94969ZM35.7095 22.8827C30.8229 27.2798 16.302 26.7756 12.4317 22.897V15.091L23.5102 19.195C23.686 19.2228 23.852 19.3744 24.4916 19.1994L35.7096 15.1551V22.8827H35.7095ZM43.4765 31.7708L41.2997 29.5941L43.4765 27.4172L45.6532 29.5941L43.4765 31.7708Z" fill="white"/>
</svg>
