<svg width="102" height="82" viewBox="0 0 102 82" fill="none" xmlns="http://www.w3.org/2000/svg">
<path d="M101.124 59.749L93.224 51.8484V24.7485L98.3818 22.889C99.5659 22.4619 100.355 21.339 100.356 20.0801C100.357 18.8216 99.5695 17.6971 98.3858 17.2686L51.1956 0.178532C50.5384 -0.0595107 49.8179 -0.0595107 49.1607 0.178532L1.97069 17.2686C0.791635 17.6957 0.00479918 18.8132 1.84031e-05 20.0672C-0.00436398 21.3211 0.774305 22.4444 1.94998 22.8801L19.3657 29.3315V49.0235C19.3657 49.6347 19.553 50.2313 19.9026 50.7325C20.0948 51.0081 21.9157 53.4948 26.5777 55.8413C32.4675 58.8062 40.1924 60.3096 49.5376 60.3096C58.8761 60.3096 66.6401 58.8094 72.6138 55.8503C77.3219 53.5183 79.2033 51.0575 79.4025 50.7848C79.7754 50.2735 79.9764 49.657 79.9764 49.0239V29.5243L87.2482 26.9027V51.8484L79.3476 59.749C78.7872 60.3094 78.4723 61.0693 78.4723 61.8617C78.4723 62.6541 78.787 63.4143 79.3476 63.9744L87.2482 71.8749V78.5036C87.2482 80.1538 88.586 81.4916 90.2362 81.4916C91.8863 81.4916 93.2242 80.1538 93.2242 78.5036V71.8749L101.125 63.9744C102.292 62.8079 102.292 60.9157 101.124 59.749ZM50.1782 6.16586L88.5761 20.0717L49.5518 34.141L11.6753 20.1098L50.1782 6.16586ZM74.0003 47.8327C63.7855 57.0242 33.432 55.9702 25.3417 47.8626V31.5454L48.4996 40.1241C48.8671 40.1823 49.2141 40.4992 50.551 40.1333L74.0005 31.6793V47.8327H74.0003ZM90.236 66.4118L85.6857 61.8617L90.236 57.3114L94.7861 61.8617L90.236 66.4118Z" fill="url(#paint0_linear_156:1496)"/>
    <linearGradient id="paint0_linear_156:1496" x1="5.72255" y1="72.1826" x2="106.304" y2="34.7865" gradientUnits="userSpaceOnUse">
        <stop stop-color="#95B1D8"/>
        <stop offset="0.447917" stop-color="#A7A7D6"/>
        <stop offset="1" stop-color="#B79DC9"/>
    </linearGradient>
</svg>