<svg width="25" height="25" viewBox="0 0 25 25" xmlns="http://www.w3.org/2000/svg">
<path d="M24.9479 19.0765C24.8786 18.8678 24.4381 18.5605 23.6265 18.1551C23.4067 18.0273 23.0934 17.8537 22.6881 17.6334C22.2824 17.4132 21.9141 17.2102 21.584 17.0247C21.2531 16.8392 20.9432 16.6596 20.6536 16.486C20.6074 16.4512 20.4625 16.3499 20.2191 16.1815C19.9754 16.0135 19.7699 15.8888 19.6015 15.8075C19.4335 15.7267 19.2682 15.686 19.1059 15.686C18.8742 15.686 18.5846 15.8513 18.237 16.1815C17.8894 16.512 17.5705 16.8711 17.2809 17.2598C16.9912 17.6482 16.6839 18.0073 16.3597 18.3377C16.035 18.6682 15.7682 18.8333 15.5598 18.8333C15.4552 18.8333 15.3247 18.8041 15.1684 18.7466C15.0121 18.6887 14.8932 18.639 14.8116 18.599C14.7308 18.5581 14.592 18.4773 14.3948 18.3552C14.1972 18.2334 14.0874 18.1667 14.0642 18.1551C12.4763 17.2739 11.1143 16.2654 9.97826 15.1298C8.84254 13.9936 7.83391 12.6318 6.953 11.0436C6.94143 11.0204 6.87462 10.9103 6.753 10.7133C6.6312 10.5162 6.55002 10.3773 6.50946 10.2959C6.4689 10.2149 6.41964 10.096 6.36178 9.93953C6.30393 9.78308 6.27488 9.65275 6.27488 9.54831C6.27488 9.33978 6.4401 9.07304 6.77048 8.74845C7.1008 8.42403 7.46023 8.11673 7.84841 7.82715C8.23689 7.53757 8.59596 7.2187 8.9264 6.87109C9.25672 6.52329 9.42188 6.23365 9.42188 6.00186C9.42188 5.83969 9.38132 5.67434 9.30026 5.50632C9.21914 5.33793 9.09454 5.13246 8.9264 4.88892C8.75819 4.6455 8.65679 4.50074 8.62196 4.45415C8.44827 4.16457 8.2688 3.85453 8.08312 3.52415C7.89743 3.19383 7.69476 2.82563 7.47442 2.41997C7.25427 2.0145 7.08052 1.70142 6.95288 1.4812C6.5474 0.669955 6.24029 0.229283 6.03158 0.159979C5.9504 0.125205 5.8286 0.107666 5.66649 0.107666C5.35334 0.107666 4.94482 0.165521 4.44063 0.281596C3.93626 0.397489 3.53938 0.519045 3.24955 0.646752C2.66997 0.890047 2.05567 1.59709 1.40648 2.76765C0.815323 3.85703 0.519775 4.93526 0.519775 6.00156C0.519775 6.31428 0.540055 6.61853 0.580614 6.91439C0.621174 7.20993 0.693645 7.54324 0.798088 7.91424C0.902349 8.28512 0.986451 8.56063 1.05003 8.74004C1.11367 8.91958 1.23249 9.24119 1.40642 9.705C1.5801 10.1687 1.68455 10.4525 1.71932 10.5569C2.12498 11.6929 2.60602 12.7071 3.16234 13.5997C4.07767 15.0833 5.32679 16.6166 6.90897 18.1989C8.49121 19.7811 10.0242 21.0301 11.5079 21.9458C12.4004 22.5021 13.415 22.9831 14.5508 23.389C14.6552 23.4236 14.939 23.5278 15.4026 23.7021C15.8662 23.8759 16.188 23.9947 16.3675 24.0585C16.5471 24.1223 16.8227 24.2065 17.1933 24.3109C17.5646 24.4154 17.8976 24.4878 18.1932 24.5287C18.4889 24.5687 18.7932 24.5894 19.106 24.5894C20.1722 24.5894 21.2505 24.2936 22.3401 23.7025C23.5105 23.0536 24.2174 22.4392 24.4608 21.8592C24.5888 21.5696 24.7101 21.1726 24.826 20.6683C24.9422 20.1641 25 19.7557 25 19.4426C25.0003 19.2798 24.9828 19.1583 24.9479 19.0765Z" fill="url(#paint0_linear_210:3280)"/>
<linearGradient id="paint0_linear_210:3280" x1="1.8932" y1="21.7928" x2="27.1424" y2="14.2931" gradientUnits="userSpaceOnUse">
<stop stop-color="#95B1D8"/>
<stop offset="0.447917" stop-color="#A7A7D6"/>
<stop offset="1" stop-color="#B79DC9"/>
</linearGradient>
</svg>
