<svg width="63" height="56" viewBox="0 0 63 56" fill="none" xmlns="http://www.w3.org/2000/svg">
<g clip-path="url(#clip0_35:28)">
<path d="M47.5343 40.8656C49.4873 42.3411 51.8486 43.1398 54.3274 43.1398C58.6093 43.1398 62.093 39.6609 62.093 35.3849C62.093 31.1089 58.6093 27.63 54.3274 27.63H49.2718V26.9434H7.76707V32.5502C7.76707 39.7708 11.4645 46.1283 17.0721 49.8381H1.99676C0.945562 49.8392 0.0930176 50.69 0.0930176 51.7398C0.0930176 52.7895 0.945562 53.6409 1.99676 53.6409H8.17771C8.34856 54.5154 9.12002 55.1759 10.0455 55.1759H46.5607C47.4868 55.1759 48.2577 54.516 48.4286 53.6409H54.6095C55.6607 53.6409 56.5133 52.7895 56.5133 51.7398C56.5133 50.69 55.6607 49.8386 54.6095 49.8386H39.9674C43.278 47.6483 45.9231 44.5349 47.5343 40.8656ZM54.3274 31.1002C56.6934 31.1002 58.618 33.0222 58.618 35.3849C58.618 37.7476 56.6934 39.6695 54.3274 39.6695C52.133 39.6695 50.147 38.7644 48.7222 37.3086C49.0819 35.7805 49.2718 34.1882 49.2718 32.5508V31.1002H54.3274Z" fill="white"/>
<path d="M16.5091 17.3602C17.101 19.3903 19.7328 19.9259 21.0881 18.3018L21.0979 18.3105C21.0846 18.2989 19.7733 17.1555 19.7322 15.6864C19.7067 14.7772 20.1944 13.835 21.1807 12.8859C22.4601 11.6551 23.2617 10.2479 23.5623 8.70186C23.8027 7.46701 23.7169 6.1726 23.3069 4.85447C23.2513 4.67517 23.191 4.50108 23.1279 4.33219C22.4769 2.593 20.2795 2.04874 18.8878 3.27953L18.6746 3.46809L18.6694 3.46172C18.6787 3.47214 19.5938 4.53694 20.0154 5.97132C20.5112 7.66019 20.104 9.10441 18.7708 10.3861C17.035 12.0553 16.1906 13.887 16.2607 15.831C16.2803 16.377 16.3719 16.8877 16.5091 17.3602Z" fill="white"/>
<path d="M35.996 17.3602C36.5879 19.3903 39.2197 19.9259 40.575 18.3018L40.5848 18.3105C40.5715 18.2989 39.2603 17.1555 39.2191 15.6864C39.1937 14.7772 39.6813 13.835 40.6677 12.8859C41.9471 11.6551 42.7486 10.2479 43.0492 8.70186C43.2896 7.46701 43.2039 6.1726 42.7938 4.85447C42.7382 4.67517 42.678 4.50108 42.6148 4.33219C41.9638 2.593 39.7665 2.04874 38.3747 3.27953L38.1616 3.46809L38.1564 3.46172C38.1656 3.47214 39.0807 4.53694 39.5024 5.97132C39.9981 7.66019 39.591 9.10441 38.2577 10.3861C36.5219 12.0553 35.6775 13.887 35.7476 15.831C35.7667 16.377 35.8582 16.8877 35.996 17.3602Z" fill="white"/>
<path d="M26.1761 19.4643C26.2335 19.6546 26.2954 19.8391 26.3609 20.0173C27.0165 21.8033 29.2921 22.3319 30.674 21.0225L31.1367 20.5835L31.1471 20.5945C31.1385 20.5852 30.2749 19.635 29.8828 18.2173C29.3911 16.4394 29.8313 14.7488 31.2294 13.0484C33.4586 10.3369 34.171 7.00716 33.2889 3.41888C33.1563 2.87868 32.9959 2.37144 32.8244 1.90584C32.2256 0.277696 30.2407 -0.338858 28.8177 0.655958L28.1187 1.14469L28.114 1.13833C28.1239 1.15221 29.0737 2.54726 29.5203 4.45881C30.0653 6.7949 29.6245 8.85162 28.2096 10.5723C25.3595 14.038 25.5309 17.3209 26.1761 19.4643Z" fill="white"/>
</g>
<defs>
<clipPath id="clip0_35:28">
<rect width="62" height="55" fill="white" transform="translate(0.0930176 0.175781)"/>
</clipPath>
</defs>
</svg>
