<svg width="49" height="49" viewBox="0 0 49 49" fill="none" xmlns="http://www.w3.org/2000/svg">
<g clip-path="url(#clip0_35:27)">
<path d="M3.55424 28.0042C-1.06072 32.6192 -1.06072 40.1009 3.55424 44.7152C8.1692 49.3301 15.651 49.3301 20.2652 44.7152L22.0696 42.9108L5.3586 26.1998L3.55424 28.0042Z" fill="white"/>
<path d="M44.6325 20.348C49.2475 15.733 49.2475 8.25124 44.6325 3.637C40.0176 -0.97796 32.5358 -0.97796 27.9216 3.637L26.1172 5.44137L42.8282 22.1524L44.6325 20.348Z" fill="white"/>
<path d="M44.6325 28.0043L20.2652 3.637C15.6503 -0.97796 8.16847 -0.97796 3.55424 3.637C-1.06072 8.25197 -1.06072 15.7338 3.55424 20.348L27.9215 44.7153C32.5365 49.3302 40.0183 49.3302 44.6325 44.7153C49.2468 40.1003 49.2468 32.6185 44.6325 28.0043ZM33.7684 25.1798C34.9951 25.1798 35.989 26.1744 35.989 27.4004C35.989 28.6264 34.9944 29.621 33.7684 29.621C32.5423 29.621 31.5478 28.6264 31.5478 27.4004C31.5478 26.1744 32.5423 25.1798 33.7684 25.1798ZM27.4768 18.8883C28.7036 18.8883 29.6974 19.8828 29.6974 21.1089C29.6974 22.3349 28.7029 23.3295 27.4768 23.3295C26.2501 23.3295 25.2563 22.3349 25.2563 21.1089C25.2563 19.8828 26.2501 18.8883 27.4768 18.8883ZM27.2074 25.7487C28.4341 25.7487 29.428 26.7432 29.428 27.9692C29.428 29.1953 28.4334 30.1898 27.2074 30.1898C25.9806 30.1898 24.9868 29.1953 24.9868 27.9692C24.9868 26.7432 25.9806 25.7487 27.2074 25.7487ZM26.9073 32.0409C28.134 32.0409 29.1279 33.0355 29.1279 34.2615C29.1279 35.4876 28.1333 36.4821 26.9073 36.4821C25.6805 36.4821 24.6867 35.4876 24.6867 34.2615C24.6867 33.0355 25.6812 32.0409 26.9073 32.0409ZM13.9978 23.5726C12.771 23.5726 11.7772 22.5781 11.7772 21.352C11.7772 20.126 12.7718 19.1315 13.9978 19.1315C15.2245 19.1315 16.2184 20.126 16.2184 21.352C16.2184 22.5781 15.2245 23.5726 13.9978 23.5726ZM20.6157 30.1898C19.389 30.1898 18.3951 29.1953 18.3951 27.9692C18.3951 26.7432 19.3897 25.7487 20.6157 25.7487C21.8425 25.7487 22.8363 26.7432 22.8363 27.9692C22.8363 29.1953 21.8425 30.1898 20.6157 30.1898ZM18.3689 21.3513C18.3689 20.1245 19.3634 19.1307 20.5894 19.1307C21.8162 19.1307 22.81 20.1253 22.81 21.3513C22.81 22.5773 21.8155 23.5719 20.5894 23.5719C19.3634 23.5726 18.3689 22.5781 18.3689 21.3513ZM20.8589 16.7115C19.6321 16.7115 18.6383 15.717 18.6383 14.4909C18.6383 13.2649 19.6329 12.2703 20.8589 12.2703C22.0857 12.2703 23.0795 13.2649 23.0795 14.4909C23.0795 15.717 22.0849 16.7115 20.8589 16.7115Z" fill="white"/>
</g>
<defs>
<clipPath id="clip0_35:27">
<rect width="48" height="48" fill="white" transform="translate(0.0930176 0.175781)"/>
</clipPath>
</defs>
</svg>
