<svg width="50" height="44" viewBox="0 0 50 44" fill="none" xmlns="http://www.w3.org/2000/svg">
<g clip-path="url(#clip0_35:3)">
<path d="M1.52663 34.5758H39.0436C39.3801 34.5758 39.7053 34.4579 39.9633 34.2441C40.3238 33.9427 48.5438 26.8827 49.0449 11.6427H8.75193C8.25285 25.4768 0.682578 31.9792 0.604112 32.0434C0.143208 32.4323 -0.0264498 33.0682 0.180674 33.6336C0.386384 34.1982 0.923634 34.5758 1.52663 34.5758Z" fill="white"/>
<path d="M47.6573 3.04268H40.4793V1.60923C40.4793 0.806754 39.8474 0.175781 39.0436 0.175781C38.2399 0.175781 37.6079 0.806754 37.6079 1.60923V3.04268H30.3345V1.60923C30.3345 0.806754 29.7025 0.175781 28.8988 0.175781C28.095 0.175781 27.4631 0.806754 27.4631 1.60923V3.04268H20.2851V1.60923C20.2851 0.806754 19.6531 0.175781 18.8494 0.175781C18.0456 0.175781 17.4137 0.806754 17.4137 1.60923V3.04268H10.2357C9.43196 3.04268 8.79999 3.67366 8.79999 4.47613V8.77649H49.093V4.47613C49.093 3.67295 48.461 3.04268 47.6573 3.04268Z" fill="white"/>
<path d="M41.8069 36.4419C41.0272 37.0898 40.0488 37.4427 39.0436 37.4427H8.79999V41.743C8.79999 42.5356 9.44186 43.1765 10.2357 43.1765H47.6573C48.4511 43.1765 49.093 42.5356 49.093 41.743V25.6751C46.3255 32.4549 42.4629 35.8935 41.8069 36.4419Z" fill="white"/>
</g>
<defs>
<clipPath id="clip0_35:3">
<rect width="49" height="43" fill="white" transform="translate(0.0930176 0.175781)"/>
</clipPath>
</defs>
</svg>
