<svg width="55" height="52" viewBox="0 0 55 52" fill="none" xmlns="http://www.w3.org/2000/svg">
<g clip-path="url(#clip0_35:9)">
<path d="M0.0930176 50.1631L21.2661 29.3495L24.5012 32.5523C24.5012 32.5523 22.5033 34.3257 18.1787 42.8395C11.9039 55.191 0.0930176 50.1631 0.0930176 50.1631Z" fill="white"/>
<path d="M53.3331 3.84768L50.384 0.92803C49.3705 -0.0753345 47.7286 -0.0753345 46.7151 0.92803L21.8868 25.5075C21.4651 25.9251 21.4651 26.6022 21.8868 27.0206L22.9797 28.1026L38.1265 13.107C38.9283 12.3133 40.2295 12.3133 41.0312 13.107C41.833 13.9008 41.833 15.189 41.0312 15.9827L25.8844 30.9782L26.9773 32.0602C27.3991 32.4778 28.083 32.4778 28.5057 32.0602L53.3331 7.47991C54.3466 6.47739 54.3466 4.85104 53.3331 3.84768Z" fill="white"/>
<path d="M48.9504 50.7768H43.3511C42.6953 50.7768 42.1643 50.251 42.1643 49.6018V49.481C42.1643 48.8318 42.6953 48.306 43.3511 48.306H48.9504C49.6062 48.306 50.1373 48.8318 50.1373 49.481V49.6018C50.1373 50.251 49.6053 50.7768 48.9504 50.7768Z" fill="white"/>
<path d="M38.7857 50.7768H33.1863C32.5306 50.7768 31.9995 50.251 31.9995 49.6018V49.481C31.9995 48.8318 32.5306 48.306 33.1863 48.306H38.7857C39.4414 48.306 39.9725 48.8318 39.9725 49.481V49.6018C39.9725 50.251 39.4414 50.7768 38.7857 50.7768Z" fill="white"/>
<path d="M28.3571 50.7768H22.7577C22.102 50.7768 21.5709 50.251 21.5709 49.6018V49.481C21.5709 48.8318 22.102 48.306 22.7577 48.306H28.3571C29.0128 48.306 29.5439 48.8318 29.5439 49.481V49.6018C29.5439 50.251 29.0128 50.7768 28.3571 50.7768Z" fill="white"/>
<path d="M12.2275 50.7768H17.8269C18.4826 50.7768 19.0137 50.251 19.0137 49.6018V49.481C19.0137 48.8318 18.4826 48.306 17.8269 48.306H16.9167C15.332 49.5976 13.6603 50.3533 12.0482 50.7616C12.1072 50.7709 12.1669 50.7768 12.2275 50.7768Z" fill="white"/>
</g>
<defs>
<clipPath id="clip0_35:9">
<rect width="54" height="51" fill="white" transform="translate(0.0930176 0.175781)"/>
</clipPath>
</defs>
</svg>
