<svg width="29" height="29" viewBox="0 0 29 29" fill="none" xmlns="http://www.w3.org/2000/svg">
<path d="M14.414 2.60284C18.2725 2.60284 18.716 2.62509 20.2461 2.69183C21.6431 2.75857 22.4193 2.98103 22.9293 3.18125C23.5946 3.4482 24.0824 3.75966 24.5925 4.27133C25.1025 4.783 25.4129 5.25018 25.679 5.93982C25.8786 6.45149 26.1226 7.20786 26.1669 8.63164C26.2335 10.1666 26.2556 10.6116 26.2556 14.4825C26.2556 18.3534 26.2335 18.7983 26.1669 20.3333C26.1004 21.7348 25.8786 22.5135 25.679 23.0251C25.4129 23.6925 25.1025 24.1819 24.5925 24.6936C24.0824 25.2053 23.6167 25.5167 22.9293 25.7837C22.4193 25.9839 21.6653 26.2286 20.2461 26.2731C18.716 26.3398 18.2725 26.3621 14.414 26.3621C10.5555 26.3621 10.112 26.3398 8.58186 26.2731C7.18481 26.2064 6.40865 25.9839 5.89861 25.7837C5.23335 25.5167 4.7455 25.2053 4.23546 24.6936C3.72543 24.1819 3.415 23.7148 3.14889 23.0251C2.94931 22.5135 2.70539 21.7571 2.66104 20.3333C2.59452 18.7983 2.57231 18.3534 2.57231 14.4825C2.57231 10.6116 2.59452 10.1666 2.66104 8.63164C2.72757 7.23011 2.94931 6.45149 3.14889 5.93982C3.415 5.27242 3.72543 4.783 4.23546 4.27133C4.7455 3.75966 5.21118 3.4482 5.89861 3.18125C6.40865 2.98103 7.16263 2.73632 8.58186 2.69183C10.112 2.62509 10.5776 2.60284 14.414 2.60284ZM14.414 0C10.4889 0 10.0011 0.0222451 8.47098 0.0889846C6.94088 0.155724 5.87645 0.400436 4.96726 0.756379C4.01372 1.13457 3.21541 1.62399 2.41709 2.42487C1.61878 3.22574 1.13092 4.02661 0.753941 4.98321C0.399135 5.89532 0.155206 6.96316 0.0886798 8.49816C0.0221537 10.0332 0 10.5448 0 14.4602C0 18.3979 0.0221537 18.8873 0.0886798 20.4223C0.155206 21.9573 0.399135 23.0251 0.753941 23.9372C1.13092 24.8938 1.61878 25.6947 2.41709 26.4956C3.21541 27.2964 4.01372 27.7859 4.96726 28.1641C5.87645 28.52 6.94088 28.7647 8.47098 28.8315C10.0011 28.8982 10.5111 28.9204 14.414 28.9204C18.339 28.9204 18.8268 28.8982 20.3569 28.8315C21.887 28.7647 22.9515 28.52 23.8607 28.1641C24.8142 27.7859 25.6125 27.2964 26.4108 26.4956C27.2091 25.6947 27.697 24.8938 28.074 23.9372C28.4288 23.0251 28.6727 21.9573 28.7392 20.4223C28.8058 18.8873 28.828 18.3756 28.828 14.4602C28.828 10.5226 28.8058 10.0332 28.7392 8.49816C28.6727 6.96316 28.4288 5.89532 28.074 4.98321C27.697 4.02661 27.2091 3.22574 26.4108 2.42487C25.6125 1.62399 24.8142 1.13457 23.8607 0.756379C22.9515 0.400436 21.887 0.155724 20.3569 0.0889846C18.8268 0.0222451 18.339 0 14.414 0Z" fill="white"/>
<path d="M14.4138 7.05127C10.3114 7.05127 7.00723 10.3882 7.00723 14.4815C7.00723 18.5971 10.3336 21.9117 14.4138 21.9117C18.5163 21.9117 21.8204 18.5748 21.8204 14.4815C21.8204 10.366 18.5163 7.05127 14.4138 7.05127ZM14.4138 19.2867C11.7528 19.2867 9.60174 17.1288 9.60174 14.4593C9.60174 11.7897 11.7528 9.63183 14.4138 9.63183C17.0749 9.63183 19.2259 11.7897 19.2259 14.4593C19.2259 17.1288 17.0749 19.2867 14.4138 19.2867Z" fill="white"/>
<path d="M22.1311 8.47594C23.0864 8.47594 23.8608 7.69902 23.8608 6.74065C23.8608 5.78228 23.0864 5.00537 22.1311 5.00537C21.1759 5.00537 20.4015 5.78228 20.4015 6.74065C20.4015 7.69902 21.1759 8.47594 22.1311 8.47594Z" fill="white"/>
</svg>
