<svg width="29" height="31" viewBox="0 0 29 31" fill="none" xmlns="http://www.w3.org/2000/svg">
<path d="M28.0819 7.77344C26.3127 7.77344 24.6803 7.18734 23.3695 6.19861C21.8661 5.06518 20.786 3.40256 20.4045 1.48625C20.3101 1.01277 20.2592 0.52416 20.2544 0.0234375H15.2005V13.833L15.1945 21.3971C15.1945 23.4194 13.8776 25.134 12.0521 25.7371C11.5223 25.9121 10.9501 25.995 10.3543 25.9623C9.59387 25.9205 8.88123 25.6911 8.26184 25.3205C6.94373 24.5322 6.05006 23.1021 6.02584 21.4661C5.9877 18.9092 8.05477 16.8246 10.6098 16.8246C11.1142 16.8246 11.5986 16.9069 12.0521 17.0565V13.282V11.9251C11.5738 11.8543 11.087 11.8174 10.5947 11.8174C7.79805 11.8174 5.18242 12.9799 3.31273 15.0742C1.89957 16.6569 1.05191 18.6761 0.921133 20.7934C0.749785 23.575 1.76758 26.219 3.74141 28.1699C4.03143 28.4562 4.33598 28.722 4.65445 28.9673C6.34674 30.2696 8.41563 30.9756 10.5947 30.9756C11.087 30.9756 11.5738 30.9393 12.0521 30.8684C14.0877 30.5669 15.9658 29.6351 17.448 28.1699C19.2693 26.3698 20.2755 23.98 20.2864 21.4364L20.2604 10.1408C21.1293 10.8111 22.0792 11.3657 23.0988 11.7962C24.6846 12.4652 26.366 12.8043 28.0964 12.8037V9.13393V7.77223C28.0976 7.77344 28.0831 7.77344 28.0819 7.77344Z" fill="white"/>
</svg>
