<svg width="31" height="18" viewBox="0 0 31 18" fill="none" xmlns="http://www.w3.org/2000/svg">
<path fill-rule="evenodd" clip-rule="evenodd" d="M15.1519 17.9055H17.0045C17.0045 17.9055 17.5641 17.8465 17.8536 17.5322C18.1237 17.2374 18.1044 16.7069 18.1044 16.7069C18.1044 16.7069 18.0658 14.1721 19.2237 13.7988C20.3623 13.4255 21.8289 16.255 23.3727 17.3357C24.5499 18.1609 25.4376 17.9841 25.4376 17.9841L29.5866 17.9251C29.5866 17.9251 31.748 17.7876 30.7252 16.0585C30.648 15.9209 30.1269 14.7813 27.6375 12.4233C25.0323 9.96718 25.3797 10.3602 28.5252 6.11592C30.4357 3.52222 31.1883 1.95027 30.9568 1.26255C30.7252 0.614122 29.3358 0.790967 29.3358 0.790967L24.6657 0.830268C24.6657 0.830268 24.3183 0.79097 24.0674 0.948165C23.8166 1.10536 23.6622 1.45904 23.6622 1.45904C23.6622 1.45904 22.9289 3.46327 21.9447 5.17276C19.8605 8.76858 19.0307 8.96506 18.7027 8.72927C17.9115 8.21839 18.1044 6.64645 18.1044 5.52644C18.1044 2.04852 18.6255 0.594475 17.101 0.221139C16.5992 0.103243 16.2133 0.00499583 14.9203 0.00499583C13.2607 -0.0146534 11.852 0.00499704 11.0415 0.417632C10.5011 0.673072 10.0959 1.2822 10.3467 1.30185C10.6555 1.34115 11.3502 1.49834 11.7169 2.00922C12.1993 2.6773 12.18 4.15099 12.18 4.15099C12.18 4.15099 12.4502 8.25769 11.5432 8.76857C10.9064 9.12226 10.0573 8.39524 8.20469 5.13346C7.2591 3.46327 6.54507 1.61624 6.54507 1.61624C6.54507 1.61624 6.40999 1.26255 6.15912 1.08571C5.86965 0.869564 5.4451 0.790967 5.4451 0.790967L1.00661 0.810617C1.00661 0.810617 0.331197 0.830268 0.0996235 1.12501C-0.112652 1.38045 0.0803187 1.93063 0.0803187 1.93063C0.0803187 1.93063 3.55392 10.203 7.49067 14.3686C11.0608 18.1609 15.1519 17.9055 15.1519 17.9055Z" fill="white"/>
</svg>
