<svg width="27" height="19" viewBox="0 0 27 19" fill="none" xmlns="http://www.w3.org/2000/svg">
<path d="M26.5483 3.04312C26.2201 1.59959 25.0423 0.526687 23.6329 0.37063C20.2926 -7.1391e-06 16.8944 0 13.5155 0C10.1366 0 6.75775 -7.1391e-06 3.39818 0.37063C1.98871 0.526687 0.810931 1.59959 0.482697 3.04312C0.0193079 5.11088 0 7.37371 0 9.49999C0 11.6263 4.69542e-06 13.8891 0.463394 15.9569C0.791628 17.4004 1.9694 18.4733 3.37888 18.6294C6.71914 19 10.1173 19 13.4962 19C16.8751 19 20.254 19 23.6135 18.6294C25.023 18.4733 26.2008 17.4004 26.529 15.9569C26.9924 13.8891 26.9924 11.6263 26.9924 9.49999C27.0117 7.37371 27.031 5.11088 26.5483 3.04312ZM10.6966 13.2064V5.63757L17.8405 9.42197L10.6966 13.2064Z" fill="white"/>
</svg>
