<svg width="107" height="87" viewBox="0 0 107 87" fill="none" xmlns="http://www.w3.org/2000/svg">
<g clip-path="url(#clip0_79:87)">
<path d="M103.707 47.2653C96.8629 44.1695 88.7963 58.5007 75.9238 65.2448C66.4326 70.2178 55.58 70.2603 50.5336 69.9345C48.9317 69.8353 47.678 68.3476 47.678 66.5482C47.678 65.0039 48.6024 63.6438 49.9447 63.2683C52.1988 62.6378 56.6374 61.9648 65.3308 61.9648C77.817 61.9648 77.3865 53.8252 76.5 50.021C76.2404 48.8946 75.335 48.1083 74.2903 48.1154C69.6048 48.1437 55.4533 49.596 43.727 49.5676C39.6873 49.5605 36.1162 48.1508 33.0707 48.1083C22.1041 47.9666 19.964 51.4378 19.5461 52.8901V52.0046C19.5461 49.3976 17.6402 47.2653 15.3101 47.2653H4.23593C1.90585 47.2653 0 49.3976 0 52.0046V82.2679C0 84.8748 1.90585 87.0072 4.23593 87.0072H15.3165C17.6212 87.0072 19.5017 84.9244 19.5461 82.36L19.5524 83.5714C19.5524 83.5714 49.2736 85.3707 67.7812 83.5714C82.5 83.5714 102.5 59.5001 102.5 59.5001C102.5 59.5001 110.546 50.361 103.707 47.2653ZM11.2452 81.0423C9.30765 81.0423 7.74371 79.2855 7.74371 77.1248C7.74371 74.9571 9.31398 73.2073 11.2452 73.2073C13.1827 73.2073 14.7466 74.9642 14.7466 77.1248C14.7466 79.2855 13.1763 81.0423 11.2452 81.0423Z" fill="white"/>
<path d="M62.8425 30.0367C62.8425 30.0367 51.6226 16.7256 44.0562 13.0702C43.1508 12.631 42.5113 11.6321 42.6126 10.527C42.7329 9.18812 43.7966 8.11134 48.1782 10.69C55.4533 14.9617 66.078 20.0268 70.8395 36.1644C71.251 37.5671 72.2768 38.7005 73.5748 38.9697C74.5878 39.1823 75.335 38.651 74.3029 35.711C72.2324 29.8241 67.3507 21.4082 67.3507 21.4082C66.2933 -0.800476 49.5142 -0.743802 37.085 0.382572C29.6199 1.05556 23.7377 0.382572 23.7377 0.382572C29.1956 42.866 62.8425 30.0367 62.8425 30.0367Z" fill="white"/>
<path d="M82.767 55.0801C82.2351 55.8239 82.4567 56.9291 83.2102 57.3754C83.761 57.6941 84.4259 57.5666 84.8438 57.0566C87.0915 54.3363 94.7909 46.4729 99.774 45.0702C100.167 44.9569 100.173 44.3264 99.7867 44.1989C97.7732 43.5472 93.7652 43.2425 88.9214 48.1589C85.3883 51.7435 83.6344 53.8616 82.767 55.0801Z" fill="white"/>
<path d="M80.5445 52.388C80.9497 52.636 81.45 52.5368 81.7602 52.1472C83.4255 50.0574 89.1493 44.0217 92.8534 42.9449C93.1447 42.8599 93.151 42.3782 92.8598 42.279C91.3655 41.776 88.3895 41.5423 84.7868 45.3181C82.1591 48.0667 80.8611 49.6961 80.2153 50.6312C79.8227 51.205 79.9873 52.048 80.5445 52.388Z" fill="white"/>
</g>
<defs>
<clipPath id="clip0_79:87">
<rect width="107" height="87" fill="white"/>
</clipPath>
</defs>
</svg>
